<svg width="390" height="844" viewBox="0 0 390 844" fill="none" xmlns="http://www.w3.org/2000/svg">
<rect x="-778.983" y="-7.18365" width="1152.24" height="819.768" fill="url(#paint0_linear_409_4049)"/>
<path d="M-728.572 64.231C-807.309 73.8329 -828.593 137.046 -829.393 167.452L-805.388 853.993H450.069V16.2211C422.863 25.0229 345.888 46.9474 255.629 64.231C142.806 85.8354 27.5824 42.6266 -34.8304 16.2211C-97.2432 -10.1843 -169.258 42.6266 -231.671 16.2211C-294.083 -10.1843 -354.096 23.4226 -430.911 64.231C-507.303 104.814 -531.466 78.9233 -564.784 43.2218L-565.339 42.6266C-598.946 6.6192 -630.152 52.2285 -728.572 64.231Z" fill="url(#paint1_linear_409_4049)"/>
<path d="M-728.572 64.231C-807.309 73.8329 -828.593 137.046 -829.393 167.452L-805.388 853.993H450.069V16.2211C422.863 25.0229 345.888 46.9474 255.629 64.231C142.806 85.8354 27.5824 42.6266 -34.8304 16.2211C-97.2432 -10.1843 -169.258 42.6266 -231.671 16.2211C-294.083 -10.1843 -354.096 23.4226 -430.911 64.231C-507.303 104.814 -531.466 78.9233 -564.784 43.2218L-565.339 42.6266C-598.946 6.6192 -630.152 52.2285 -728.572 64.231Z" fill="url(#paint2_linear_409_4049)"/>
<path d="M51.5873 90.6364C139.925 130.965 330.044 153.049 392.457 136.246L421.263 839.59H-805.388L-863 289.877C-847.797 288.277 -802.988 286.036 -745.376 289.877C-673.361 294.678 -603.747 256.27 -524.531 215.462C-445.314 174.654 -476.521 148.248 -385.302 169.853C-294.083 191.457 -234.071 136.246 -140.452 45.027C-60.177 -33.1897 -58.8353 40.2261 51.5873 90.6364Z" fill="url(#paint3_linear_409_4049)"/>
<g filter="url(#filter0_i_409_4049)">
<path d="M47.9863 51.0283C119.041 6.85923 231.224 32.6245 278.433 51.0283V874.397H-626.552C-618.55 827.187 -578.542 713.084 -482.522 634.348C-362.498 535.928 -360.097 567.134 -302.485 528.726C-244.874 490.318 -225.67 449.51 -216.068 406.301C-206.466 363.092 -177.66 317.483 -141.653 288.677C-105.645 259.871 -84.0407 219.063 -64.8368 192.657C-45.6329 166.252 -40.8319 106.24 47.9863 51.0283Z" fill="url(#paint4_linear_409_4049)"/>
</g>
<path d="M302.538 -52.612C373.593 -96.781 485.776 -71.0158 532.985 -52.612V770.757H-372C-363.998 723.547 -323.99 609.444 -227.971 530.707C-107.946 432.287 -105.545 463.494 -47.9337 425.086C9.6781 386.678 28.882 345.87 38.484 302.661C48.086 259.452 76.8919 213.843 112.899 185.037C148.907 156.231 170.511 115.422 189.715 89.017C208.919 62.6116 213.72 2.59931 302.538 -52.612Z" fill="url(#paint5_linear_409_4049)"/>
<g filter="url(#filter1_bf_409_4049)">
<path d="M-22.828 449.51C50.1469 432.226 26.8555 387.738 70.7912 387.097C142.912 386.044 157.209 550.33 157.209 550.33H-421.31C-378.101 528.726 -226.15 390.698 -170.458 361.892C-100.844 325.885 -114.047 471.114 -22.828 449.51Z" fill="url(#paint6_linear_409_4049)" fill-opacity="0.6"/>
</g>
<g filter="url(#filter2_i_409_4049)">
<path d="M231.624 13.8206C284.435 -24.5872 388.456 -70.9967 440.467 -87V803.582H-541.334C-504.526 709.963 -420.349 679.237 -330.091 633.147C-239.832 587.058 -143.653 580.337 -106.845 582.737C-74.0384 591.539 -17.684 496.845 29.9829 433.907C91.7956 352.29 94.78 274.035 115.2 197.458C144.006 89.4361 171.223 57.7487 231.624 13.8206Z" fill="url(#paint7_linear_409_4049)"/>
</g>
<g filter="url(#filter3_bf_409_4049)">
<path d="M115.2 491.518C188.175 474.235 164.884 429.747 208.819 429.106C280.941 428.053 295.237 592.339 295.237 592.339H-283.281C-240.072 570.735 -139.732 520.324 -84.0405 491.518C-14.4262 455.511 23.9817 513.123 115.2 491.518Z" fill="url(#paint8_linear_409_4049)" fill-opacity="0.6"/>
</g>
<path d="M284.435 69.032C311.32 22.9425 406.06 3.41854 450.069 -0.582275V820.386H-654.157C-573.341 722.766 -386.262 521.765 -284.482 498.72C-157.256 469.914 -54.0344 589.939 44.3857 556.332C142.806 522.725 121.877 356.872 157.209 282.676C205.219 181.855 250.828 126.644 284.435 69.032Z" fill="url(#paint9_linear_409_4049)"/>
<g filter="url(#filter4_f_409_4049)">
<path d="M129.603 495.119C225.623 412.302 229.697 379.337 273.633 378.695C345.754 377.643 289.236 658.352 289.236 658.352H-289.283C-246.074 636.748 -145.733 586.338 -90.0419 557.532C-20.4277 521.524 58.6169 556.345 129.603 495.119Z" fill="url(#paint10_linear_409_4049)"/>
</g>
<path d="M-538.934 59.43C-586.944 -5.86339 -755.778 -76.5979 -834.194 -67.7961V844.39H418.862C425.264 697.16 401.375 570.509 394.857 541.929C379.254 473.515 214.82 614.544 118.801 626.546C22.7811 638.549 -32.4302 515.523 -97.2435 472.315C-162.057 429.106 -178.86 251.469 -229.271 210.661C-279.681 169.853 -322.89 210.661 -380.501 210.661C-438.113 210.661 -478.922 141.047 -538.934 59.43Z" fill="url(#paint11_linear_409_4049)"/>
<path d="M-644.555 49.828C-640.715 11.4201 -712.569 -18.9861 -757.378 -46.1917L-814.99 -31.7887V839.59H423.663L462.071 299.479C449.268 298.679 445.543 336.687 393.657 336.687C372.053 336.687 334.845 378.695 303.639 421.904C246.996 500.333 250.828 645.15 210.02 645.15C169.211 645.15 116.4 741.17 -32.4301 645.15C-85.2233 611.09 -162.057 469.914 -183.661 429.106C-205.265 388.297 -322.89 304.28 -366.098 297.079C-409.307 289.877 -442.914 217.862 -478.921 191.457C-514.929 165.052 -515.147 137.129 -546.135 109.84C-579.92 80.089 -649.356 97.8378 -644.555 49.828Z" fill="url(#paint12_linear_409_4049)"/>
<path d="M-644.555 49.828C-640.715 11.4201 -712.569 -18.9861 -757.378 -46.1917L-814.99 -31.7887V839.59H423.663L462.071 299.479C449.268 298.679 445.543 336.687 393.657 336.687C372.053 336.687 334.845 378.695 303.639 421.904C246.996 500.333 250.828 645.15 210.02 645.15C169.211 645.15 116.4 741.17 -32.4301 645.15C-85.2233 611.09 -162.057 469.914 -183.661 429.106C-205.265 388.297 -322.89 304.28 -366.098 297.079C-409.307 289.877 -442.914 217.862 -478.921 191.457C-514.929 165.052 -515.147 137.129 -546.135 109.84C-579.92 80.089 -649.356 97.8378 -644.555 49.828Z" fill="url(#paint13_linear_409_4049)" fill-opacity="0.2"/>
<path d="M-632.553 169.853C-662.319 134.325 -755.378 72.6327 -798.187 46.2273V847.991H396.058L468.073 559.932C452.069 563.933 412.621 572.895 382.855 576.736C345.648 581.537 330.044 611.543 300.038 639.149C270.032 666.754 212.42 729.167 123.602 729.167C86.1052 729.167 -19.2271 750.771 -61.2357 676.356C-80.2363 642.698 -166.857 639.149 -222.069 509.522C-240.603 466.005 -284.481 381.096 -387.703 318.683C-421.845 298.039 -595.345 214.262 -632.553 169.853Z" fill="url(#paint14_linear_409_4049)"/>
<path d="M-673.361 239.467C-718.681 229.615 -776.982 164.251 -802.988 139.846V849.192H392.457V743.57C374.453 749.971 332.925 765.895 310.84 778.377C283.235 793.98 110.399 829.988 70.7911 826.387C31.183 822.786 -73.2384 781.978 -120.048 743.57C-166.858 705.162 -255.242 678.838 -320.489 611.543C-367.56 562.994 -397.305 515.523 -420.109 469.914C-442.914 424.305 -507.727 275.474 -673.361 239.467Z" fill="url(#paint15_linear_409_4049)"/>
<g filter="url(#filter5_bf_409_4049)">
<path d="M294.037 890C294.037 890 322.843 642.749 -46.8328 573.135C-72.9652 568.214 -54.0612 626.237 -15.6264 700.361C51.5873 829.988 -214.867 890 -214.867 890H294.037Z" fill="url(#paint16_linear_409_4049)" fill-opacity="0.7"/>
</g>
<defs>
<filter id="filter0_i_409_4049" x="-626.552" y="26.6403" width="906.786" height="847.757" filterUnits="userSpaceOnUse" color-interpolation-filters="sRGB">
<feFlood flood-opacity="0" result="BackgroundImageFix"/>
<feBlend mode="normal" in="SourceGraphic" in2="BackgroundImageFix" result="shape"/>
<feColorMatrix in="SourceAlpha" type="matrix" values="0 0 0 0 0 0 0 0 0 0 0 0 0 0 0 0 0 0 127 0" result="hardAlpha"/>
<feOffset dx="1.80037"/>
<feGaussianBlur stdDeviation="30.0061"/>
<feComposite in2="hardAlpha" operator="arithmetic" k2="-1" k3="1"/>
<feColorMatrix type="matrix" values="0 0 0 0 0 0 0 0 0 0 0 0 0 0 0 0 0 0 0.05 0"/>
<feBlend mode="darken" in2="shape" result="effect1_innerShadow_409_4049"/>
</filter>
<filter id="filter1_bf_409_4049" x="-451.316" y="326.118" width="638.531" height="254.218" filterUnits="userSpaceOnUse" color-interpolation-filters="sRGB">
<feFlood flood-opacity="0" result="BackgroundImageFix"/>
<feGaussianBlur in="BackgroundImageFix" stdDeviation="9.00184"/>
<feComposite in2="SourceAlpha" operator="in" result="effect1_backgroundBlur_409_4049"/>
<feBlend mode="normal" in="SourceGraphic" in2="effect1_backgroundBlur_409_4049" result="shape"/>
<feGaussianBlur stdDeviation="15.0031" result="effect2_foregroundBlur_409_4049"/>
</filter>
<filter id="filter2_i_409_4049" x="-541.334" y="-87" width="987.802" height="890.582" filterUnits="userSpaceOnUse" color-interpolation-filters="sRGB">
<feFlood flood-opacity="0" result="BackgroundImageFix"/>
<feBlend mode="normal" in="SourceGraphic" in2="BackgroundImageFix" result="shape"/>
<feColorMatrix in="SourceAlpha" type="matrix" values="0 0 0 0 0 0 0 0 0 0 0 0 0 0 0 0 0 0 127 0" result="hardAlpha"/>
<feOffset dx="6.00123"/>
<feGaussianBlur stdDeviation="30.0061"/>
<feComposite in2="hardAlpha" operator="arithmetic" k2="-1" k3="1"/>
<feColorMatrix type="matrix" values="0 0 0 0 0 0 0 0 0 0 0 0 0 0 0 0 0 0 0.1 0"/>
<feBlend mode="overlay" in2="shape" result="effect1_innerShadow_409_4049"/>
</filter>
<filter id="filter3_bf_409_4049" x="-313.287" y="399.094" width="638.531" height="223.251" filterUnits="userSpaceOnUse" color-interpolation-filters="sRGB">
<feFlood flood-opacity="0" result="BackgroundImageFix"/>
<feGaussianBlur in="BackgroundImageFix" stdDeviation="9.00184"/>
<feComposite in2="SourceAlpha" operator="in" result="effect1_backgroundBlur_409_4049"/>
<feBlend mode="normal" in="SourceGraphic" in2="effect1_backgroundBlur_409_4049" result="shape"/>
<feGaussianBlur stdDeviation="15.0031" result="effect2_foregroundBlur_409_4049"/>
</filter>
<filter id="filter4_f_409_4049" x="-331.291" y="336.684" width="683.6" height="363.677" filterUnits="userSpaceOnUse" color-interpolation-filters="sRGB">
<feFlood flood-opacity="0" result="BackgroundImageFix"/>
<feBlend mode="normal" in="SourceGraphic" in2="BackgroundImageFix" result="shape"/>
<feGaussianBlur stdDeviation="21.0043" result="effect1_foregroundBlur_409_4049"/>
</filter>
<filter id="filter5_bf_409_4049" x="-274.879" y="512.831" width="629.452" height="437.181" filterUnits="userSpaceOnUse" color-interpolation-filters="sRGB">
<feFlood flood-opacity="0" result="BackgroundImageFix"/>
<feGaussianBlur in="BackgroundImageFix" stdDeviation="9.00184"/>
<feComposite in2="SourceAlpha" operator="in" result="effect1_backgroundBlur_409_4049"/>
<feBlend mode="normal" in="SourceGraphic" in2="effect1_backgroundBlur_409_4049" result="shape"/>
<feGaussianBlur stdDeviation="30.0061" result="effect2_foregroundBlur_409_4049"/>
</filter>
<linearGradient id="paint0_linear_409_4049" x1="373.253" y1="-7.18365" x2="-754.978" y2="-7.18365" gradientUnits="userSpaceOnUse">
<stop stop-color="#F9B233" stop-opacity="0.22"/>
<stop offset="0.365957" stop-color="#4B5CA5" stop-opacity="0.36"/>
<stop offset="0.714894" stop-color="#4B5CA5" stop-opacity="0.4"/>
</linearGradient>
<linearGradient id="paint1_linear_409_4049" x1="186.015" y1="6.61915" x2="186.015" y2="853.993" gradientUnits="userSpaceOnUse">
<stop stop-color="#4B5CA5" stop-opacity="0.25"/>
<stop offset="0.92068" stop-color="#4B5CA5"/>
</linearGradient>
<linearGradient id="paint2_linear_409_4049" x1="397.258" y1="177.054" x2="-750.177" y2="177.054" gradientUnits="userSpaceOnUse">
<stop offset="0.186192" stop-color="#4B5CA5" stop-opacity="0.18"/>
<stop offset="0.506276" stop-color="#4B5CA5" stop-opacity="0.37"/>
<stop offset="0.776151" stop-color="#4B5CA5" stop-opacity="0.29"/>
</linearGradient>
<linearGradient id="paint3_linear_409_4049" x1="-82.8402" y1="13.8207" x2="-94.8427" y2="450.71" gradientUnits="userSpaceOnUse">
<stop stop-color="#4B5CA5" stop-opacity="0.11"/>
<stop offset="0.463017" stop-color="#4B5CA5" stop-opacity="0.4"/>
<stop offset="1" stop-color="#4B5CA5"/>
</linearGradient>
<linearGradient id="paint4_linear_409_4049" x1="91.6635" y1="72.5934" x2="91.6635" y2="450.411" gradientUnits="userSpaceOnUse">
<stop stop-color="#4B5CA5" stop-opacity="0.29"/>
<stop offset="0.670406" stop-color="#4B5CA5" stop-opacity="0.45"/>
<stop offset="1" stop-color="#4B5CA5"/>
</linearGradient>
<linearGradient id="paint5_linear_409_4049" x1="434.617" y1="-106.746" x2="-166.584" y2="207.194" gradientUnits="userSpaceOnUse">
<stop offset="0.171345" stop-color="#4B5CA5" stop-opacity="0.29"/>
<stop offset="0.663284" stop-color="#4B5CA5" stop-opacity="0.62"/>
<stop offset="0.966184" stop-color="#4B5CA5"/>
</linearGradient>
<linearGradient id="paint6_linear_409_4049" x1="-132.05" y1="387.092" x2="-104.445" y2="510.722" gradientUnits="userSpaceOnUse">
<stop stop-color="#4B5CA5"/>
<stop offset="1" stop-color="#4B5CA5" stop-opacity="0.4"/>
</linearGradient>
<linearGradient id="paint7_linear_409_4049" x1="333.749" y1="-118.248" x2="-306.637" y2="373.568" gradientUnits="userSpaceOnUse">
<stop stop-color="#E9501D" stop-opacity="0.29"/>
<stop offset="0.349134" stop-color="#E9501D" stop-opacity="0.69"/>
<stop offset="0.626381" stop-color="#E9501D" stop-opacity="0.79"/>
<stop offset="0.966184" stop-color="#E9501D"/>
</linearGradient>
<linearGradient id="paint8_linear_409_4049" x1="5.97797" y1="429.101" x2="5.97797" y2="592.339" gradientUnits="userSpaceOnUse">
<stop stop-color="#E9501D" stop-opacity="0.5"/>
<stop offset="1" stop-color="#E9501D"/>
</linearGradient>
<linearGradient id="paint9_linear_409_4049" x1="330.044" y1="-29.3882" x2="-150.054" y2="820.386" gradientUnits="userSpaceOnUse">
<stop stop-color="#F9B233"/>
<stop offset="0.300462" stop-color="#F9B233" stop-opacity="0.46"/>
<stop offset="0.575801" stop-color="#F9B233" stop-opacity="0.52"/>
<stop offset="0.849851" stop-color="#F9B233"/>
</linearGradient>
<linearGradient id="paint10_linear_409_4049" x1="116.4" y1="474.715" x2="80.393" y2="593.539" gradientUnits="userSpaceOnUse">
<stop stop-color="#4B5CA5"/>
<stop offset="0.999561" stop-color="#E9501D"/>
</linearGradient>
<linearGradient id="paint11_linear_409_4049" x1="-780.852" y1="260.225" x2="354.241" y2="901.984" gradientUnits="userSpaceOnUse">
<stop stop-color="#4B5CA5" stop-opacity="0.23"/>
<stop offset="0.28225" stop-color="#4B5CA5" stop-opacity="0.38"/>
<stop offset="0.50603" stop-color="#4B5CA5" stop-opacity="0.7"/>
<stop offset="0.645473" stop-color="#4B5CA5" stop-opacity="0.8"/>
<stop offset="1" stop-color="#4B5CA5"/>
</linearGradient>
<linearGradient id="paint12_linear_409_4049" x1="-887.005" y1="150.649" x2="333.031" y2="924.809" gradientUnits="userSpaceOnUse">
<stop stop-color="#4B5CA5"/>
<stop offset="0.194922" stop-color="#4B5CA5" stop-opacity="0.67"/>
<stop offset="0.56017" stop-color="#4B5CA5" stop-opacity="0.77"/>
<stop offset="0.803407" stop-color="#4B5CA5" stop-opacity="0.58"/>
<stop offset="1" stop-color="#4B5CA5"/>
</linearGradient>
<linearGradient id="paint13_linear_409_4049" x1="373.253" y1="396.699" x2="-63.6365" y2="882.798" gradientUnits="userSpaceOnUse">
<stop offset="0.0970083" stop-color="#4B5CA5"/>
<stop offset="0.288367" stop-color="#4B5CA5" stop-opacity="0.74"/>
<stop offset="0.440377" stop-color="#4B5CA5" stop-opacity="0.72"/>
</linearGradient>
<linearGradient id="paint14_linear_409_4049" x1="-826.992" y1="345.088" x2="343.122" y2="883.223" gradientUnits="userSpaceOnUse">
<stop stop-color="#4B5CA5"/>
<stop offset="0.318245" stop-color="#F9B233"/>
<stop offset="0.629301" stop-color="#E9501D"/>
<stop offset="1" stop-color="#4B5CA5"/>
</linearGradient>
<linearGradient id="paint15_linear_409_4049" x1="-802.988" y1="733.968" x2="-303.686" y2="733.968" gradientUnits="userSpaceOnUse">
<stop stop-color="#4B5CA5"/>
<stop offset="1" stop-color="#4B5CA5" stop-opacity="0.72"/>
</linearGradient>
<linearGradient id="paint16_linear_409_4049" x1="77.9927" y1="436.307" x2="77.9927" y2="813.184" gradientUnits="userSpaceOnUse">
<stop stop-color="#F9B233"/>
<stop offset="1" stop-color="#E9501D"/>
</linearGradient>
</defs>
</svg>
