<svg viewBox="0 0 1200 751" fill="none" xmlns="http://www.w3.org/2000/svg">
    <rect x="-42.7188" y="-171.184" width="1169.58" height="819.768" fill="url(#paint0_linear_409_5632)"/>
    <path d="M8.45068 -99.769C-71.4707 -90.1671 -93.0755 -26.9541 -93.8877 3.45212L-69.5214 689.993L1204.83 689.993V-147.779C1177.22 -138.977 1099.09 -117.053 1007.47 -99.769C892.947 -78.1646 775.988 -121.373 712.636 -147.779C649.284 -174.184 576.185 -121.373 512.833 -147.779C449.48 -174.184 388.565 -140.577 310.593 -99.769C233.051 -59.1858 208.525 -85.0767 174.705 -120.778L174.141 -121.373C140.029 -157.381 108.352 -111.771 8.45068 -99.769Z" fill="url(#paint1_linear_409_5632)"/>
    <path d="M8.45068 -99.769C-71.4707 -90.1671 -93.0755 -26.9541 -93.8877 3.45212L-69.5214 689.993L1204.83 689.993V-147.779C1177.22 -138.977 1099.09 -117.053 1007.47 -99.769C892.947 -78.1646 775.988 -121.373 712.636 -147.779C649.284 -174.184 576.185 -121.373 512.833 -147.779C449.48 -174.184 388.565 -140.577 310.593 -99.769C233.051 -59.1858 208.525 -85.0767 174.705 -120.778L174.141 -121.373C140.029 -157.381 108.352 -111.771 8.45068 -99.769Z" fill="url(#paint2_linear_409_5632)"/>
    <path d="M800.355 -73.3636C890.023 -33.0353 1083 -10.9508 1146.36 -27.7542L1175.6 675.59L-69.5209 675.59L-128 125.877C-112.568 124.277 -67.0843 122.037 -8.60523 125.877C64.4936 130.678 135.156 92.2705 215.565 51.4621C295.973 10.6538 264.297 -15.7518 356.889 5.85266C449.481 27.4571 510.396 -27.7542 605.425 -118.973C686.909 -197.19 688.27 -123.774 800.355 -73.3636Z" fill="url(#paint3_linear_409_5632)"/>
    <g filter="url(#filter0_i_409_5632)">
    <path d="M796.7 -112.972C868.824 -157.141 982.696 -131.376 1030.62 -112.972V710.396L112.008 710.396C120.13 663.187 160.74 549.083 258.205 470.347C380.037 371.927 382.474 403.133 440.953 364.725C499.432 326.318 518.925 285.509 528.671 242.3C538.418 199.092 567.657 153.482 604.207 124.676C640.756 95.8704 662.686 55.0621 682.179 28.6567C701.672 2.25125 706.545 -57.761 796.7 -112.972Z" fill="url(#paint4_linear_409_5632)"/>
    </g>
    <path d="M1055.08 -216.612C1127.21 -260.781 1241.08 -235.016 1289 -216.612V606.757L370.391 606.757C378.513 559.547 419.124 445.444 516.589 366.707C638.42 268.287 640.857 299.494 699.336 261.086C757.815 222.678 777.308 181.87 787.054 138.661C796.801 95.4519 826.041 49.8426 862.59 21.0367C899.139 -7.76923 921.069 -48.5776 940.562 -74.983C960.055 -101.388 964.928 -161.401 1055.08 -216.612Z" fill="url(#paint5_linear_409_5632)"/>
    <g filter="url(#filter1_bf_409_5632)">
    <path d="M724.82 285.51C798.894 268.227 775.252 223.739 819.849 223.098C893.056 222.045 907.567 386.331 907.567 386.331L320.34 386.331C364.199 364.727 518.438 226.698 574.967 197.892C645.63 161.885 632.228 307.115 724.82 285.51Z" fill="url(#paint6_linear_409_5632)" fill-opacity="0.6"/>
    </g>
    <g filter="url(#filter2_i_409_5632)">
    <path d="M983.102 -150.179C1036.71 -188.587 1142.3 -234.997 1195.09 -251V639.582L198.508 639.582C235.87 545.963 321.314 515.237 412.932 469.147C504.549 423.058 602.176 416.337 639.538 418.737C672.838 427.539 730.041 332.845 778.426 269.907C841.169 188.29 844.198 110.035 864.926 33.4583C894.165 -74.5639 921.792 -106.251 983.102 -150.179Z" fill="url(#paint7_linear_409_5632)"/>
    </g>
    <g filter="url(#filter3_bf_409_5632)">
    <path d="M864.926 327.518C938.999 310.235 915.357 265.747 959.954 265.106C1033.16 264.053 1047.67 428.339 1047.67 428.339L460.445 428.339C504.305 406.735 606.156 356.324 662.685 327.518C733.348 291.511 772.334 349.123 864.926 327.518Z" fill="url(#paint8_linear_409_5632)" fill-opacity="0.6"/>
    </g>
    <path d="M1036.71 -94.9678C1064 -141.057 1160.16 -160.581 1204.84 -164.582V656.386L83.9863 656.386C166.019 558.766 355.914 357.765 459.227 334.72C588.368 305.914 693.143 425.939 793.045 392.332C892.947 358.725 871.703 192.873 907.567 118.676C956.299 17.8553 1002.6 -37.356 1036.71 -94.9678Z" fill="url(#paint9_linear_409_5632)"/>
    <g filter="url(#filter4_f_409_5632)">
    <path d="M461.886 51.7724C559.351 -31.0445 563.487 -64.0101 608.084 -64.6513C681.29 -65.7039 623.922 215.006 623.922 215.006L36.6943 215.006C80.5536 193.401 182.405 142.991 238.934 114.185C309.597 78.1778 389.831 112.998 461.886 51.7724Z" fill="url(#paint10_linear_409_5632)"/>
    </g>
    <path d="M200.944 -104.57C152.212 -169.864 -19.1642 -240.598 -98.7607 -231.796L-98.7607 680.39L1173.16 680.39C1179.66 533.16 1155.41 406.508 1148.79 377.929C1132.95 309.514 966.046 450.543 868.581 462.546C771.115 474.548 715.073 351.523 649.284 308.314C583.495 265.105 566.439 87.469 515.269 46.6606C464.1 5.85226 420.241 46.6606 361.762 46.6606C303.283 46.6606 261.86 -22.9536 200.944 -104.57Z" fill="url(#paint11_linear_409_5632)"/>
    <path d="M93.733 -114.172C97.6316 -152.58 24.6952 -182.986 -20.7885 -210.191L-79.2676 -195.788L-79.2676 675.59L1178.03 675.59L1217.02 135.479C1204.02 134.679 1200.24 172.687 1147.57 172.687C1125.65 172.687 1087.88 214.696 1056.2 257.904C998.705 336.333 1002.6 481.15 961.173 481.15C919.75 481.15 866.144 577.17 715.073 481.15C661.485 447.09 583.495 305.914 561.566 265.106C539.636 224.298 420.241 140.28 376.382 133.079C332.523 125.877 298.41 53.8627 261.86 27.4572C225.311 1.05185 225.089 -26.8711 193.635 -54.1595C159.342 -83.9108 88.8598 -66.1619 93.733 -114.172Z" fill="url(#paint12_linear_409_5632)"/>
    <path d="M93.733 -114.172C97.6316 -152.58 24.6952 -182.986 -20.7885 -210.191L-79.2676 -195.788L-79.2676 675.59L1178.03 675.59L1217.02 135.479C1204.02 134.679 1200.24 172.687 1147.57 172.687C1125.65 172.687 1087.88 214.696 1056.2 257.904C998.705 336.333 1002.6 481.15 961.173 481.15C919.75 481.15 866.144 577.17 715.073 481.15C661.485 447.09 583.495 305.914 561.566 265.106C539.636 224.298 420.241 140.28 376.382 133.079C332.523 125.877 298.41 53.8627 261.86 27.4572C225.311 1.05185 225.089 -26.8711 193.635 -54.1595C159.342 -83.9108 88.8598 -66.1619 93.733 -114.172Z" fill="url(#paint13_linear_409_5632)" fill-opacity="0.2"/>
    <path d="M105.916 5.85284C75.7022 -29.6744 -18.7577 -91.3671 -62.2109 -117.772L-62.2109 683.992L1150.01 683.992L1223.11 395.933C1206.87 399.933 1166.82 408.895 1136.61 412.736C1098.84 417.537 1083 447.543 1052.55 475.149C1022.09 502.755 963.609 565.167 873.454 565.167C835.393 565.167 728.475 586.772 685.834 512.357C666.547 478.698 578.622 475.149 522.58 345.522C503.766 302.006 459.227 217.096 354.452 154.683C319.796 134.039 143.684 50.2619 105.916 5.85284Z" fill="url(#paint14_linear_409_5632)"/>
    <path d="M64.4939 75.4671C18.4916 65.6149 -40.6872 0.251677 -67.084 -24.1533L-67.084 685.192L1146.36 685.192V579.57C1128.08 585.972 1085.93 601.895 1063.51 614.377C1035.49 629.981 860.053 665.988 819.849 662.387C779.644 658.786 673.651 617.978 626.137 579.57C578.622 541.162 488.907 514.838 422.678 447.543C374.898 398.995 344.706 351.524 321.558 305.914C298.41 260.305 232.621 111.474 64.4939 75.4671Z" fill="url(#paint15_linear_409_5632)"/>
    <path d="M149.6 352.512C117.364 313.949 59.3816 244.585 -71.957 181.088V704.995L734.567 710.996C714.465 689.992 639.594 633.153 622.482 622.778C551.211 579.569 456.791 581.97 403.186 550.764C349.58 519.557 235.058 454.744 149.776 352.723L149.6 352.512Z" fill="url(#paint16_linear_409_5632)"/>
    <path d="M108.353 483.948C-44.1748 413.825 -101.197 488.749 -101.197 551.162V680.789L522.579 680.789C462.476 653.583 327.649 584.769 108.353 483.948Z" fill="url(#paint17_linear_409_5632)"/>
    <g filter="url(#filter5_bf_409_5632)">
    <path d="M1161.02 690.156C1161.02 690.156 1190.26 442.906 815.02 373.291C788.494 368.37 807.683 426.393 846.696 500.517C914.922 630.144 644.456 690.156 644.456 690.156H1161.02Z" fill="url(#paint18_linear_409_5632)" fill-opacity="0.7"/>
    </g>
    <defs>
    <filter id="filter0_i_409_5632" x="112.008" y="-137.36" width="920.409" height="847.757" filterUnits="userSpaceOnUse" color-interpolation-filters="sRGB">
    <feFlood flood-opacity="0" result="BackgroundImageFix"/>
    <feBlend mode="normal" in="SourceGraphic" in2="BackgroundImageFix" result="shape"/>
    <feColorMatrix in="SourceAlpha" type="matrix" values="0 0 0 0 0 0 0 0 0 0 0 0 0 0 0 0 0 0 127 0" result="hardAlpha"/>
    <feOffset dx="1.80037"/>
    <feGaussianBlur stdDeviation="30.0061"/>
    <feComposite in2="hardAlpha" operator="arithmetic" k2="-1" k3="1"/>
    <feColorMatrix type="matrix" values="0 0 0 0 0 0 0 0 0 0 0 0 0 0 0 0 0 0 0.05 0"/>
    <feBlend mode="darken" in2="shape" result="effect1_innerShadow_409_5632"/>
    </filter>
    <filter id="filter1_bf_409_5632" x="290.334" y="162.119" width="647.24" height="254.218" filterUnits="userSpaceOnUse" color-interpolation-filters="sRGB">
    <feFlood flood-opacity="0" result="BackgroundImageFix"/>
    <feGaussianBlur in="BackgroundImageFix" stdDeviation="9.00184"/>
    <feComposite in2="SourceAlpha" operator="in" result="effect1_backgroundBlur_409_5632"/>
    <feBlend mode="normal" in="SourceGraphic" in2="effect1_backgroundBlur_409_5632" result="shape"/>
    <feGaussianBlur stdDeviation="15.0031" result="effect2_foregroundBlur_409_5632"/>
    </filter>
    <filter id="filter2_i_409_5632" x="198.508" y="-251" width="1002.58" height="890.582" filterUnits="userSpaceOnUse" color-interpolation-filters="sRGB">
    <feFlood flood-opacity="0" result="BackgroundImageFix"/>
    <feBlend mode="normal" in="SourceGraphic" in2="BackgroundImageFix" result="shape"/>
    <feColorMatrix in="SourceAlpha" type="matrix" values="0 0 0 0 0 0 0 0 0 0 0 0 0 0 0 0 0 0 127 0" result="hardAlpha"/>
    <feOffset dx="6.00123"/>
    <feGaussianBlur stdDeviation="30.0061"/>
    <feComposite in2="hardAlpha" operator="arithmetic" k2="-1" k3="1"/>
    <feColorMatrix type="matrix" values="0 0 0 0 0 0 0 0 0 0 0 0 0 0 0 0 0 0 0.1 0"/>
    <feBlend mode="overlay" in2="shape" result="effect1_innerShadow_409_5632"/>
    </filter>
    <filter id="filter3_bf_409_5632" x="430.439" y="235.094" width="647.24" height="223.251" filterUnits="userSpaceOnUse" color-interpolation-filters="sRGB">
    <feFlood flood-opacity="0" result="BackgroundImageFix"/>
    <feGaussianBlur in="BackgroundImageFix" stdDeviation="9.00184"/>
    <feComposite in2="SourceAlpha" operator="in" result="effect1_backgroundBlur_409_5632"/>
    <feBlend mode="normal" in="SourceGraphic" in2="effect1_backgroundBlur_409_5632" result="shape"/>
    <feGaussianBlur stdDeviation="15.0031" result="effect2_foregroundBlur_409_5632"/>
    </filter>
    <filter id="filter4_f_409_5632" x="-5.31427" y="-106.663" width="692.626" height="363.677" filterUnits="userSpaceOnUse" color-interpolation-filters="sRGB">
    <feFlood flood-opacity="0" result="BackgroundImageFix"/>
    <feBlend mode="normal" in="SourceGraphic" in2="BackgroundImageFix" result="shape"/>
    <feGaussianBlur stdDeviation="21.0043" result="effect1_foregroundBlur_409_5632"/>
    </filter>
    <filter id="filter5_bf_409_5632" x="584.444" y="312.988" width="637.121" height="437.181" filterUnits="userSpaceOnUse" color-interpolation-filters="sRGB">
    <feFlood flood-opacity="0" result="BackgroundImageFix"/>
    <feGaussianBlur in="BackgroundImageFix" stdDeviation="9.00184"/>
    <feComposite in2="SourceAlpha" operator="in" result="effect1_backgroundBlur_409_5632"/>
    <feBlend mode="normal" in="SourceGraphic" in2="effect1_backgroundBlur_409_5632" result="shape"/>
    <feGaussianBlur stdDeviation="30.0061" result="effect2_foregroundBlur_409_5632"/>
    </filter>
    <linearGradient id="paint0_linear_409_5632" x1="1126.86" y1="-171.184" x2="-18.3525" y2="-171.184" gradientUnits="userSpaceOnUse">
    <stop stop-color="#F9B233" stop-opacity="0.22"/>
    <stop offset="0.365957" stop-color="#4B5CA5" stop-opacity="0.36"/>
    <stop offset="0.714894" stop-color="#4B5CA5" stop-opacity="0.4"/>
    </linearGradient>
    <linearGradient id="paint1_linear_409_5632" x1="936.806" y1="-157.381" x2="936.806" y2="689.993" gradientUnits="userSpaceOnUse">
    <stop stop-color="#4B5CA5" stop-opacity="0.25"/>
    <stop offset="0.92068" stop-color="#4B5CA5"/>
    </linearGradient>
    <linearGradient id="paint2_linear_409_5632" x1="1151.23" y1="13.054" x2="-13.479" y2="13.054" gradientUnits="userSpaceOnUse">
    <stop offset="0.186192" stop-color="#4B5CA5" stop-opacity="0.18"/>
    <stop offset="0.506276" stop-color="#4B5CA5" stop-opacity="0.37"/>
    <stop offset="0.776151" stop-color="#4B5CA5" stop-opacity="0.29"/>
    </linearGradient>
    <linearGradient id="paint3_linear_409_5632" x1="663.904" y1="-150.179" x2="652.079" y2="286.72" gradientUnits="userSpaceOnUse">
    <stop stop-color="#4B5CA5" stop-opacity="0.11"/>
    <stop offset="0.463017" stop-color="#4B5CA5" stop-opacity="0.4"/>
    <stop offset="1" stop-color="#4B5CA5"/>
    </linearGradient>
    <linearGradient id="paint4_linear_409_5632" x1="841.035" y1="-91.4073" x2="841.035" y2="286.41" gradientUnits="userSpaceOnUse">
    <stop stop-color="#4B5CA5" stop-opacity="0.29"/>
    <stop offset="0.670406" stop-color="#4B5CA5" stop-opacity="0.45"/>
    <stop offset="1" stop-color="#4B5CA5"/>
    </linearGradient>
    <linearGradient id="paint5_linear_409_5632" x1="1189.15" y1="-270.746" x2="582.84" y2="50.6284" gradientUnits="userSpaceOnUse">
    <stop offset="0.171345" stop-color="#4B5CA5" stop-opacity="0.29"/>
    <stop offset="0.663284" stop-color="#4B5CA5" stop-opacity="0.62"/>
    <stop offset="0.966184" stop-color="#4B5CA5"/>
    </linearGradient>
    <linearGradient id="paint6_linear_409_5632" x1="613.954" y1="223.093" x2="641.188" y2="346.896" gradientUnits="userSpaceOnUse">
    <stop stop-color="#4B5CA5"/>
    <stop offset="1" stop-color="#4B5CA5" stop-opacity="0.4"/>
    </linearGradient>
    <linearGradient id="paint7_linear_409_5632" x1="1086.77" y1="-282.248" x2="443.972" y2="218.848" gradientUnits="userSpaceOnUse">
    <stop stop-color="#E9501D" stop-opacity="0.29"/>
    <stop offset="0.349134" stop-color="#E9501D" stop-opacity="0.69"/>
    <stop offset="0.626381" stop-color="#E9501D" stop-opacity="0.79"/>
    <stop offset="0.966184" stop-color="#E9501D"/>
    </linearGradient>
    <linearGradient id="paint8_linear_409_5632" x1="754.059" y1="265.101" x2="754.059" y2="428.339" gradientUnits="userSpaceOnUse">
    <stop stop-color="#E9501D" stop-opacity="0.5"/>
    <stop offset="1" stop-color="#E9501D"/>
    </linearGradient>
    <linearGradient id="paint9_linear_409_5632" x1="1083" y1="-193.388" x2="606.632" y2="662.483" gradientUnits="userSpaceOnUse">
    <stop stop-color="#F9B233"/>
    <stop offset="0.300462" stop-color="#F9B233" stop-opacity="0.46"/>
    <stop offset="0.575801" stop-color="#F9B233" stop-opacity="0.52"/>
    <stop offset="0.849851" stop-color="#F9B233"/>
    </linearGradient>
    <linearGradient id="paint10_linear_409_5632" x1="448.484" y1="31.3683" x2="412.923" y2="150.488" gradientUnits="userSpaceOnUse">
    <stop stop-color="#4B5CA5"/>
    <stop offset="0.999561" stop-color="#E9501D"/>
    </linearGradient>
    <linearGradient id="paint11_linear_409_5632" x1="-44.6155" y1="96.225" x2="1099.16" y2="752.628" gradientUnits="userSpaceOnUse">
    <stop stop-color="#4B5CA5" stop-opacity="0.23"/>
    <stop offset="0.28225" stop-color="#4B5CA5" stop-opacity="0.38"/>
    <stop offset="0.50603" stop-color="#4B5CA5" stop-opacity="0.7"/>
    <stop offset="0.645473" stop-color="#4B5CA5" stop-opacity="0.8"/>
    <stop offset="1" stop-color="#4B5CA5"/>
    </linearGradient>
    <linearGradient id="paint12_linear_409_5632" x1="-152.366" y1="-13.3511" x2="1075.35" y2="777.407" gradientUnits="userSpaceOnUse">
    <stop stop-color="#4B5CA5"/>
    <stop offset="0.194922" stop-color="#4B5CA5" stop-opacity="0.67"/>
    <stop offset="0.56017" stop-color="#4B5CA5" stop-opacity="0.77"/>
    <stop offset="0.803407" stop-color="#4B5CA5" stop-opacity="0.58"/>
    <stop offset="1" stop-color="#4B5CA5"/>
    </linearGradient>
    <linearGradient id="paint13_linear_409_5632" x1="1126.86" y1="232.699" x2="690.716" y2="725.279" gradientUnits="userSpaceOnUse">
    <stop offset="0.0970083" stop-color="#4B5CA5"/>
    <stop offset="0.288367" stop-color="#4B5CA5" stop-opacity="0.74"/>
    <stop offset="0.440377" stop-color="#4B5CA5" stop-opacity="0.72"/>
    </linearGradient>
    <linearGradient id="paint14_linear_409_5632" x1="-91.4505" y1="181.089" x2="1090.02" y2="732.626" gradientUnits="userSpaceOnUse">
    <stop stop-color="#4B5CA5"/>
    <stop offset="0.629301" stop-color="#E9501D"/>
    <stop offset="0.786458" stop-color="#F9B233"/>
    <stop offset="1" stop-color="#4B5CA5"/>
    </linearGradient>
    <linearGradient id="paint15_linear_409_5632" x1="-67.084" y1="569.968" x2="439.735" y2="569.968" gradientUnits="userSpaceOnUse">
    <stop stop-color="#4B5CA5"/>
    <stop offset="1" stop-color="#4B5CA5" stop-opacity="0.72"/>
    </linearGradient>
    <linearGradient id="paint16_linear_409_5632" x1="-40.2809" y1="327.518" x2="367.939" y2="729.696" gradientUnits="userSpaceOnUse">
    <stop stop-color="#F9B233"/>
    <stop offset="1" stop-color="#4B5CA5"/>
    </linearGradient>
    <linearGradient id="paint17_linear_409_5632" x1="-98.1748" y1="584.274" x2="-30.0838" y2="767.783" gradientUnits="userSpaceOnUse">
    <stop stop-color="#4B5CA5"/>
    <stop offset="1" stop-color="#E9501D"/>
    </linearGradient>
    <linearGradient id="paint18_linear_409_5632" x1="941.725" y1="236.463" x2="941.725" y2="613.34" gradientUnits="userSpaceOnUse">
    <stop stop-color="#F9B233"/>
    <stop offset="1" stop-color="#E9501D"/>
    </linearGradient>
    </defs>
    </svg>