<?xml version="1.0" encoding="UTF-8"?><svg id="Camada_1" xmlns="http://www.w3.org/2000/svg" viewBox="0 0 818.58 499.39"><defs><style>.cls-1{fill:#e84e1b;}</style></defs><g><path class="cls-1" d="M20.7,83.23l82.72,5.11-1.09,25.84L1.65,106.31,6.13,.09,105.8,.74l-1.09,25.82-81.54-1.86-.66,15.65,71.77,2.38-1.08,25.66-71.72-3.55-.78,18.38Z"/><path class="cls-1" d="M190.53,1.21l21.53,.14-5.11,120.89-20.47-1.6-40.88-75.57-3.05,72.14-19.87-1.55L127.53,.8l18.98,.12,40.89,74.34L190.53,1.21Z"/><path class="cls-1" d="M291.96,59.65l58.2,2.27-2.93,71.25-26.65-2.08,.4-9.47c-10.14,6.77-22,9.77-34.61,8.77-33.4-2.64-55.83-28.9-54.2-67.61C233.81,24.09,258.38-.18,291.88,0c38.14,.21,54.91,24.71,54.91,24.71l-19.75,19.38s-10.19-13.71-36.42-14.29c-21.91-.49-32.74,8.13-33.83,34.02-1.09,25.9,8.97,35.4,30.84,36.76,12.48,.78,21.52-2.73,27.36-10.72l-24.25-1.34,1.22-28.87Z"/><path class="cls-1" d="M451.07,2.91l37.28,141.28-31.33-2.44-5.89-22.75-47.91-3.18-7.38,21.17-28.48-2.22L412.77,2.66l38.3,.25Zm-20.84,35.42l-16.45,47.22,29.08,1.46-12.62-48.68Z"/><path class="cls-1" d="M558.99,36.82l1.4-33.2,86.77,.57-3.02,71.48c-2.19,51.86-30.32,80.69-73.78,77.25-42.31-3.35-65.53-34.25-63.48-82.76l.18-4.23,33.2,1.26-.18,4.3c-1.34,31.78,7.74,45.35,31.75,46.84,24.4,1.52,35.09-11.26,36.48-44.1l1.53-36.25-50.85-1.16Z"/><path class="cls-1" d="M795.67,5.16l-52.96-.33-86.52,152.44,38.15,2.98,13.97-24.17,64.88,4.33,3,21.3,35.48-45.83-16.02-110.72Zm-67.32,96.18l31.61-54.75,8.01,56.74-39.62-1.99Z"/></g><g><path class="cls-1" d="M260.54,253.87v-67.07s-169.16-11.87-169.16-11.87L0,303.79v195.6s83-5.87,83-5.87v-126.34s144.14-2.06,144.14-2.06v-68.1s-144.14-2.52-144.14-2.52v-47.4s177.54,6.77,177.54,6.77Z"/><path class="cls-1" d="M382.27,409.45l123.56-4.71v59.22s-185.94,13.02-185.94,13.02V190.95s62.38,4.37,62.38,4.37v214.13Z"/><path class="cls-1" d="M551.08,460.79V207.12s49.24,3.45,49.24,3.45v246.78s-49.24,3.45-49.24,3.45Z"/><path class="cls-1" d="M758.27,333.95l60.31,108.12-45.72,3.2-38.92-67.69-40.88,73.28-53.57,3.75,69.37-120.65-69.38-120.64,53.57,3.75,40.89,73.29,38.91-67.7,45.73,3.2-60.31,108.1Z"/></g></svg>