<?xml version="1.0" encoding="UTF-8"?><svg id="Camada_1" xmlns="http://www.w3.org/2000/svg" viewBox="0 0 828.65 505.71"><defs><style>.cls-1{fill:none;stroke:#f8b133;stroke-miterlimit:10;stroke-width:.75px;}</style></defs><g><path class="cls-1" d="M21.31,84.52l83.64,5.16-1.1,26.12L2.04,107.87,6.58,.46l100.78,.66-1.1,26.11-82.44-1.88-.67,15.83,72.57,2.41-1.1,25.95-72.52-3.59-.78,18.58Z"/><path class="cls-1" d="M193.02,1.6l21.77,.14-5.16,122.23-20.7-1.61-41.33-76.41-3.08,72.94-20.09-1.57L129.32,1.19l19.19,.13,41.34,75.17L193.02,1.6Z"/><path class="cls-1" d="M295.57,60.69l58.85,2.3-2.96,72.04-26.94-2.1,.4-9.57c-10.25,6.84-22.25,9.88-34.99,8.87-33.77-2.67-56.45-29.22-54.8-68.36C236.78,24.74,261.62,.19,295.5,.38c38.56,.21,55.52,24.99,55.52,24.99l-19.97,19.6s-10.3-13.86-36.83-14.45c-22.15-.49-33.1,8.22-34.2,34.4-1.11,26.19,9.07,35.79,31.18,37.17,12.61,.78,21.76-2.76,27.67-10.84l-24.52-1.36,1.23-29.19Z"/><path class="cls-1" d="M456.45,3.31l37.7,142.85-31.67-2.47-5.95-23-48.44-3.22-7.47,21.4-28.8-2.25L417.73,3.06l38.72,.25Zm-21.07,35.81l-16.63,47.75,29.4,1.48-12.76-49.22Z"/><path class="cls-1" d="M565.57,37.6l1.42-33.57,87.73,.57-3.05,72.27c-2.22,52.44-30.66,81.59-74.6,78.11-42.78-3.39-66.25-34.63-64.18-83.68l.18-4.28,33.57,1.27-.18,4.35c-1.36,32.13,7.83,45.85,32.1,47.36,24.67,1.54,35.48-11.38,36.89-44.59l1.55-36.65-51.42-1.17Z"/><path class="cls-1" d="M804.88,5.59l-53.55-.34-87.48,154.13,38.58,3.01,14.13-24.44,65.6,4.38,3.04,21.53,35.88-46.33-16.2-111.95Zm-68.07,97.25l31.96-55.36,8.1,57.37-40.06-2.01Z"/></g><g><path class="cls-1" d="M263.81,257.06v-67.82l-171.04-12L.38,307.53v197.77l83.92-5.93v-127.74l145.74-2.09v-68.86l-145.74-2.54v-47.93l179.51,6.85Z"/><path class="cls-1" d="M386.89,414.37l124.93-4.76v59.88l-188.01,13.16V193.45l63.08,4.41v216.51Z"/><path class="cls-1" d="M557.57,466.28V209.79l49.78,3.48v249.51l-49.78,3.48Z"/><path class="cls-1" d="M767.06,338.03l60.98,109.32-46.23,3.24-39.35-68.44-41.34,74.09-54.17,3.79,70.14-121.99-70.15-121.98,54.17,3.79,41.35,74.1,39.34-68.45,46.23,3.24-60.98,109.3Z"/></g></svg>