<?xml version="1.0" encoding="UTF-8"?><svg id="Camada_1" xmlns="http://www.w3.org/2000/svg" viewBox="0 0 819.9 500.43"><defs><style>.cls-1{fill:none;stroke:#4b5ca5;stroke-miterlimit:10;}</style></defs><g><path class="cls-1" d="M21.2,83.73l82.72,5.11-1.09,25.84L2.15,106.81,6.63,.59l99.67,.65-1.09,25.82-81.54-1.86-.66,15.65,71.77,2.38-1.08,25.66-71.72-3.55-.78,18.38h0Z"/><path class="cls-1" d="M191.03,1.71l21.53,.14-5.11,120.89-20.47-1.6-40.88-75.57-3.05,72.14-19.87-1.55L128.03,1.3l18.98,.12,40.89,74.34L191.03,1.71Z"/><path class="cls-1" d="M292.46,60.15l58.2,2.27-2.93,71.25-26.65-2.08,.4-9.47c-10.14,6.77-22,9.77-34.61,8.77-33.4-2.64-55.83-28.9-54.2-67.61C234.31,24.59,258.88,.32,292.38,.5c38.14,.21,54.91,24.71,54.91,24.71l-19.75,19.38s-10.19-13.71-36.42-14.29c-21.91-.49-32.74,8.13-33.83,34.02-1.09,25.9,8.97,35.4,30.84,36.76,12.48,.78,21.52-2.73,27.36-10.72l-24.25-1.34s1.22-28.87,1.22-28.87Z"/><path class="cls-1" d="M451.57,3.41l37.28,141.28-31.33-2.44-5.89-22.75-47.91-3.18-7.38,21.17-28.48-2.22L413.27,3.16l38.3,.25h0Zm-20.84,35.42l-16.45,47.22,29.08,1.46-12.62-48.68h0Z"/><path class="cls-1" d="M559.49,37.32l1.4-33.2,86.77,.57-3.02,71.48c-2.19,51.86-30.32,80.69-73.78,77.25-42.31-3.35-65.53-34.25-63.48-82.76l.18-4.23,33.2,1.26-.18,4.3c-1.34,31.78,7.74,45.35,31.75,46.84,24.4,1.52,35.09-11.26,36.48-44.1l1.53-36.25-50.85-1.16h0Z"/><path class="cls-1" d="M796.17,5.66l-52.96-.33-86.52,152.44,38.15,2.98,13.97-24.17,64.88,4.33,3,21.3,35.48-45.83-16.02-110.72h.02Zm-67.32,96.18l31.61-54.75,8.01,56.74s-39.62-1.99-39.62-1.99Z"/></g><g><path class="cls-1" d="M261.04,254.37v-67.07l-169.16-11.87L.5,304.29v195.6l83-5.87v-126.34l144.14-2.06v-68.1l-144.14-2.52v-47.4l177.54,6.77h0Z"/><path class="cls-1" d="M382.77,409.95l123.56-4.71v59.22l-185.94,13.02V191.45l62.38,4.37v214.13Z"/><path class="cls-1" d="M551.58,461.29V207.62l49.24,3.45v246.78l-49.24,3.45h0Z"/><path class="cls-1" d="M758.77,334.45l60.31,108.12-45.72,3.2-38.92-67.69-40.88,73.28-53.57,3.75,69.37-120.65-69.38-120.64,53.57,3.75,40.89,73.29,38.91-67.7,45.73,3.2-60.31,108.1h0Z"/></g></svg>